<?xml version="1.0" encoding="iso-8859-1"?>
<!-- Generator: Adobe Illustrator 19.0.0, SVG Export Plug-In . SVG Version: 6.00 Build 0)  -->
<svg version="1.1" id="Capa_1" xmlns="http://www.w3.org/2000/svg" xmlns:xlink="http://www.w3.org/1999/xlink" x="0px" y="0px"
	 viewBox="0 0 480.003 480.003" style="enable-background:new 0 0 480.003 480.003;" xml:space="preserve">
<polygon style="fill:#F4F2ED;" points="400.003,64.002 416.003,80.002 472.003,64.002 472.003,48.002 472.003,32.002 
	416.003,16.002 400.003,32.002 240.003,32.002 240.003,64.002 "/>
<path style="fill:#36C2CC;" d="M8.003,88.002h168c0-8.8,7.2-16,16-16s16,7.2,16,16h32v-24v-32v-24h-32c0,8.8-7.2,16-16,16
	s-16-7.2-16-16h-168V88.002z"/>
<path style="fill:#EFD06F;" d="M8.003,440.002l24,32h72l24-32h320c6.64,0,12.64-2.72,16.96-7.04c4.32-4.32,7.04-10.32,7.04-16.96
	c0-13.28-10.72-24-24-24h-320l-24-32h-72l-24,32h56l16,24l-16,24H8.003z"/>
<g>
	<circle style="fill:#F4F2ED;" cx="360.003" cy="288.002" r="40"/>
	<circle style="fill:#F4F2ED;" cx="112.003" cy="288.002" r="40"/>
</g>
<path style="fill:#EF5E65;" d="M8.003,288.002h64c0-22.08,17.92-40,40-40s40,17.92,40,40h88h80c0-22.08,17.92-40,40-40
	s40,17.92,40,40h72v-40c0-26.48-21.52-56-48-56h-64c0-19.84-8.08-37.92-21.12-50.88c-12.96-13.04-31.04-21.12-50.88-21.12h-104
	c-39.76,0-72,32.24-72,72h-56c-26.48,0-48,29.52-48,56V288.002z M184.003,152.002h56h48c22.088,0,40,17.912,40,40h-88h-96
	C144.003,169.914,161.915,152.002,184.003,152.002z"/>
<path style="fill:#F4F2ED;" d="M328.003,192.002c0-22.088-17.912-40-40-40h-48h-56c-22.088,0-40,17.912-40,40h96H328.003z"/>
<g>
	<path style="fill:#0F2323;" d="M8.003,96.002h168c4.424,0,8-3.576,8-8c0-4.416,3.584-8,8-8s8,3.584,8,8c0,4.424,3.576,8,8,8h32
		c4.424,0,8-3.576,8-8v-16h148.688l13.656,13.656c1.52,1.52,3.56,2.344,5.656,2.344c0.736,0,1.48-0.104,2.192-0.304l56-16
		c3.44-0.984,5.808-4.128,5.808-7.696v-16v-16c0-3.568-2.368-6.712-5.808-7.696l-56-16c-2.776-0.784-5.8-0.016-7.848,2.04
		l-13.656,13.656H248.003v-16c0-4.424-3.576-8-8-8h-32c-4.424,0-8,3.576-8,8c0,4.416-3.584,8-8,8s-8-3.584-8-8c0-4.424-3.576-8-8-8
		h-168c-4.424,0-8,3.576-8,8v80C0.003,92.426,3.579,96.002,8.003,96.002z M400.003,40.002c2.128,0,4.16-0.84,5.656-2.344
		l12.672-12.672l45.672,13.048v9.968v9.968l-45.672,13.048l-12.672-12.672c-1.496-1.504-3.528-2.344-5.656-2.344h-152v-16H400.003z
		 M16.003,16.002h153.368c3.304,9.312,12.2,16,22.632,16s19.328-6.688,22.632-16h17.368v64h-17.368c-3.304-9.312-12.2-16-22.632-16
		s-19.328,6.688-22.632,16H16.003V16.002z"/>
	<rect x="32.003" y="32.002" style="fill:#0F2323;" width="88" height="16"/>
	<rect x="136.003" y="32.002" style="fill:#0F2323;" width="16" height="16"/>
	<path style="fill:#0F2323;" d="M8.003,432.002c-3.032,0-5.8,1.712-7.16,4.424c-1.344,2.712-1.056,5.952,0.76,8.376l24,32
		c1.512,2.016,3.888,3.2,6.4,3.2h72c2.512,0,4.888-1.184,6.4-3.2l21.6-28.8h316c8.528,0,16.568-3.328,22.616-9.384
		c6.056-6.048,9.384-14.088,9.384-22.616c0-17.648-14.352-32-32-32h-316l-21.6-28.8c-1.512-2.016-3.888-3.2-6.4-3.2h-72
		c-2.512,0-4.888,1.184-6.4,3.2l-24,32c-1.824,2.424-2.112,5.664-0.76,8.376c1.36,2.712,4.128,4.424,7.16,4.424h51.72l10.664,16
		l-10.664,16H8.003z M70.659,444.442l16-24c1.792-2.688,1.792-6.184,0-8.872l-16-24c-1.488-2.232-3.984-3.568-6.656-3.568h-40l12-16
		h64l21.6,28.8c1.504,2.016,3.88,3.2,6.4,3.2h320c8.824,0,16,7.176,16,16c0,4.256-1.664,8.272-4.696,11.304
		s-7.048,4.696-11.304,4.696h-320c-2.512,0-4.888,1.184-6.4,3.2l-21.6,28.8h-64l-12-16h40
		C66.675,448.002,69.171,446.666,70.659,444.442z"/>
	<rect x="432.003" y="408.002" style="fill:#0F2323;" width="16" height="16"/>
	<path style="fill:#0F2323;" d="M8.003,296.002h56.72c3.824,22.664,23.536,40,47.28,40s43.448-17.336,47.28-40h153.44
		c3.824,22.664,23.536,40,47.28,40s43.448-17.336,47.28-40h64.72c4.424,0,8-3.576,8-8v-40c0-30.208-23.944-64-56-64h-56.392
		c-1.816-18.384-9.84-35.392-23.056-48.52c-15.048-15.144-35.128-23.48-56.552-23.48h-104c-41.416,0-75.576,31.632-79.6,72h-48.4
		c-32.056,0-56,33.792-56,64v40C0.003,292.426,3.579,296.002,8.003,296.002z M112.003,320.002c-17.648,0-32-14.352-32-32
		s14.352-32,32-32s32,14.352,32,32S129.651,320.002,112.003,320.002z M360.003,320.002c-17.648,0-32-14.352-32-32s14.352-32,32-32
		s32,14.352,32,32S377.651,320.002,360.003,320.002z M16.003,248.002c0-21.744,17.84-48,40-48h56c4.424,0,8-3.576,8-8
		c0-35.288,28.712-64,64-64h104c17.136,0,33.184,6.664,45.24,18.792c12.096,12.024,18.76,28.072,18.76,45.208c0,4.424,3.576,8,8,8
		h64c22.16,0,40,26.256,40,48v32h-56.664c-0.032-0.184-0.104-0.352-0.144-0.536c-0.44-2.432-1.064-4.8-1.856-7.096
		c-0.144-0.424-0.304-0.832-0.456-1.248c-0.864-2.288-1.872-4.496-3.056-6.6c-0.176-0.304-0.368-0.592-0.544-0.896
		c-1.288-2.176-2.704-4.264-4.312-6.2c-0.04-0.056-0.096-0.096-0.136-0.152c-1.616-1.928-3.392-3.704-5.288-5.36
		c-0.216-0.184-0.408-0.384-0.624-0.568c-1.864-1.568-3.856-2.976-5.944-4.256c-0.352-0.216-0.696-0.432-1.056-0.64
		c-2.08-1.2-4.256-2.248-6.52-3.136c-0.392-0.152-0.792-0.296-1.192-0.44c-2.328-0.84-4.72-1.528-7.192-2
		c-0.312-0.064-0.64-0.088-0.96-0.144c-2.624-0.44-5.304-0.728-8.056-0.728s-5.432,0.288-8.056,0.728
		c-0.32,0.056-0.64,0.088-0.96,0.144c-2.472,0.472-4.864,1.16-7.192,2c-0.4,0.144-0.8,0.28-1.192,0.44
		c-2.264,0.888-4.44,1.928-6.528,3.136c-0.36,0.208-0.704,0.424-1.056,0.64c-2.088,1.28-4.08,2.68-5.944,4.256
		c-0.216,0.184-0.408,0.384-0.624,0.568c-1.888,1.656-3.672,3.432-5.288,5.36c-0.04,0.056-0.096,0.096-0.136,0.152
		c-1.608,1.936-3.024,4.032-4.312,6.208c-0.176,0.296-0.368,0.584-0.536,0.888c-1.184,2.104-2.192,4.32-3.056,6.608
		c-0.16,0.416-0.312,0.824-0.456,1.248c-0.792,2.296-1.424,4.656-1.856,7.096c-0.032,0.184-0.112,0.352-0.144,0.536h-64.664v-80.008
		h80c4.424,0,8-3.576,8-8c0-26.472-21.528-48-48-48h-104c-26.472,0-48,21.528-48,48c0,4.424,3.576,8,8,8h88v80h-72.664
		c-0.032-0.184-0.104-0.352-0.144-0.536c-0.44-2.432-1.064-4.8-1.856-7.096c-0.144-0.424-0.304-0.832-0.456-1.248
		c-0.864-2.288-1.872-4.496-3.056-6.6c-0.176-0.304-0.368-0.592-0.544-0.896c-1.288-2.176-2.704-4.264-4.312-6.2
		c-0.04-0.056-0.096-0.096-0.136-0.152c-1.616-1.928-3.392-3.704-5.288-5.36c-0.216-0.184-0.408-0.384-0.624-0.568
		c-1.864-1.568-3.856-2.976-5.944-4.256c-0.352-0.216-0.696-0.432-1.056-0.64c-2.08-1.2-4.256-2.248-6.52-3.136
		c-0.392-0.152-0.792-0.296-1.192-0.44c-2.328-0.84-4.72-1.528-7.192-2c-0.312-0.064-0.64-0.088-0.96-0.144
		c-2.624-0.44-5.304-0.728-8.056-0.728s-5.432,0.288-8.056,0.728c-0.32,0.056-0.64,0.088-0.96,0.144
		c-2.472,0.472-4.864,1.16-7.192,2c-0.4,0.144-0.8,0.28-1.192,0.44c-2.264,0.888-4.44,1.928-6.528,3.136
		c-0.36,0.208-0.704,0.424-1.056,0.64c-2.088,1.28-4.08,2.68-5.944,4.256c-0.216,0.184-0.408,0.384-0.624,0.568
		c-1.888,1.656-3.672,3.432-5.288,5.36c-0.04,0.056-0.096,0.096-0.136,0.152c-1.608,1.936-3.024,4.032-4.312,6.208
		c-0.176,0.296-0.368,0.584-0.536,0.888c-1.184,2.104-2.192,4.32-3.056,6.608c-0.16,0.416-0.312,0.824-0.456,1.248
		c-0.792,2.296-1.424,4.656-1.856,7.096c-0.032,0.184-0.112,0.352-0.144,0.536H16.003V248.002z M248.003,160.002h40
		c14.88,0,27.432,10.208,30.984,24h-70.984V160.002z M232.003,184.002h-78.984c3.552-13.792,16.104-24,30.984-24h48L232.003,184.002
		L232.003,184.002z"/>
	<rect x="192.003" y="216.002" style="fill:#0F2323;" width="24" height="16"/>
	<rect x="296.003" y="216.002" style="fill:#0F2323;" width="24" height="16"/>
</g>
<g>
</g>
<g>
</g>
<g>
</g>
<g>
</g>
<g>
</g>
<g>
</g>
<g>
</g>
<g>
</g>
<g>
</g>
<g>
</g>
<g>
</g>
<g>
</g>
<g>
</g>
<g>
</g>
<g>
</g>
</svg>
